<svg width="543" height="152" viewBox="0 0 543 152" fill="none" xmlns="http://www.w3.org/2000/svg">
<path d="M194.52 120.72C208.63 127.81 216.72 134.79 216.82 134.59C216.72 134.79 209.61 126.92 196 118.06C182.48 109.21 161.85 100.45 139.15 98.0901C116.65 95.3401 92.86 99.2801 75.5 106.16C57.93 112.95 46.68 121.41 44.01 123.48C32.96 132.23 29.21 143.84 33.26 147.19C37.5 150.63 46.97 145.91 56.25 138.73C58.52 136.96 67.4 128.69 82.2 121.22C96.71 113.64 117.53 107.64 138.66 107.74C159.78 107.63 180.41 113.63 194.52 120.72Z" fill="#35A249"/>
<path d="M177.14 132.62C172.4 133.9 168.56 136.75 165.8 139.51C163.04 142.26 161.36 144.92 161.27 145.51C159.89 148.16 160.67 150.82 162.15 151.21C163.83 151.6 165.51 150.13 166.49 148.06C166.69 147.67 167.67 145.31 169.54 142.75C171.42 140.1 174.28 137.14 178.22 135.27C182.07 133.2 186.22 132.61 189.37 132.52C192.33 132.52 194.5 132.91 194.7 133.01C194.51 132.91 192.43 132.12 189.47 131.63C186.23 131.15 181.79 130.95 177.14 132.62Z" fill="#D72329"/>
<path d="M158.2 116.29C144.58 115.6 130.76 119.04 120.6 123.86C111.32 128.29 105.1 133.31 103.13 135.08C102.83 135.28 102.73 135.47 102.54 135.57C96.42 141.27 94.94 148.36 97.7 150.13C100.66 152.1 106.09 149.15 111.22 144.62C111.52 144.33 111.91 144.03 112.31 143.54C114.38 141.77 118.82 137.34 125.73 133.11C126.03 132.91 126.32 132.71 126.52 132.62C134.71 127.7 146.26 123.37 158.4 122.49C170.94 121.41 183.27 124.07 191.96 127.61C200.64 131.15 205.78 134.79 205.78 134.79C205.78 134.89 201.14 130.46 192.75 125.84C184.35 121.11 171.82 116.68 158.2 116.29Z" fill="#E7852A"/>
<path d="M105.21 0C47.08 0 0 32.37 0 72.31C0 93.37 13.23 112.35 34.24 125.63C36.11 123.37 38.29 121.3 40.76 119.33C43.92 116.87 55.76 108.11 73.52 101.23C88.81 95.23 106.98 91.88 124.44 91.88C129.67 91.88 134.9 92.18 139.73 92.77C164.6 95.42 183.95 104.77 194.21 110.77C204.38 99.65 210.39 86.47 210.39 72.3C210.41 32.36 163.24 0 105.21 0ZM103.73 63.16C108.56 62.97 111.22 56.87 115.67 55.2C121.49 53.13 125.44 52.35 128.89 46.54C133.34 38.96 136.09 30.01 142.61 23.81C143.2 23.32 146.46 22.93 145.67 23.61C137.28 31.58 136.09 47.32 125.73 53.13C124.15 54.11 122.68 54.9 120.89 55.39C114.87 56.97 113.79 58.73 109.94 62.18C107.87 64.15 105.01 64.44 102.34 64.54C100.07 64.64 102.84 63.16 103.73 63.16ZM79.15 84.71C79.05 85.01 78.76 85.2 78.36 85.3C77.47 86.09 75.4 86.38 75.4 85.49C75.01 81.16 73.63 77.52 71.55 73.79C71.06 72.9 69.58 70.84 70.07 69.65C71.35 66.41 74.42 64.54 77.28 62.86C80.44 61.09 87.64 56.86 82.91 52.14C81.53 50.76 80.83 49.68 80.14 47.91C79.65 46.63 80.83 44.37 81.33 43.29C85.17 35.22 78.96 37.78 76.2 36.11C71.27 33.35 70.57 28.04 66.73 24.3C56.27 14.07 39.2 21.45 33.37 33.35C26.56 47.03 28.93 72.71 49.56 71.92C50.84 71.92 50.74 72.41 50.15 73C51.24 87.07 46.6 99.76 43.15 113.24C42.85 114.32 39.5 115.11 39.79 114.03C43.25 100.65 47.89 87.96 46.9 73.89C30.81 73.4 22.81 54.7 27.16 40.64C31.01 28.44 46.01 12.6 60.62 17.32C63.97 18.5 67.72 19.97 69.9 22.93C72.86 26.96 74.83 33.75 80.36 34.73C92.11 36.9 79.28 43.98 85.1 49.78C89.34 54.11 88.35 57.95 83.42 61.78C80.56 63.95 71.48 66.41 74.14 71.23C75.92 74.48 77.4 77.72 78.28 81.17C85.68 71.13 100.78 67.98 112.43 66.12C114.8 65.83 113.31 67.4 111.84 67.6C99.88 69.46 84.68 72.61 79.15 84.71ZM171.13 29.22C144.98 32.37 143.7 65.82 124.85 78.41C119.82 81.76 113.5 85 107.18 84.41C99.18 83.53 105.01 76.44 107.97 73.39C108.56 72.8 111.92 72.41 111.13 73.29C110.15 74.28 102.74 81.46 108.08 82.54C113.51 82.74 118.14 81.26 122.19 78.11C126.53 74.67 130.09 70.63 132.95 65.91C136.51 60.01 139.66 53.81 143.52 48.1C150.52 37.87 158.91 29.31 171.74 27.73C174.09 27.45 172.61 29.02 171.13 29.22Z" fill="#1A6DAE"/>
<path d="M249.39 83.2099L233.5 40.4099H243.66L252.05 67.0699C252.15 67.6599 252.45 68.6399 252.74 70.1199C253.04 71.6899 253.43 73.3699 253.83 75.2399C254.03 73.3699 254.32 71.7999 254.62 70.3199C254.92 68.9399 255.21 67.7599 255.51 66.8799L264 40.4099H274.07L258.08 83.2099H249.39Z" fill="#1A6DAE"/>
<path d="M271.3 83.2099L287.68 40.4099H298.24L314.82 83.2099H304.36L300.91 74.1599H284.23L281.17 83.2099H271.3ZM298.73 66.9699L293.89 53.0999C293.79 52.7099 293.59 52.0199 293.4 50.9399C293.1 49.9599 292.91 48.7799 292.71 47.2999C292.41 48.6799 292.22 49.9599 291.92 51.0399C291.72 52.1199 291.52 52.9099 291.43 53.2999L286.79 66.9799H298.73V66.9699Z" fill="#1A6DAE"/>
<path d="M349.26 83.2099H338.6L327.35 63.2399V83.2099H318.17V40.4099H331.3C336.53 40.4099 340.48 41.3899 343.04 43.4599C345.61 45.4299 346.99 48.4799 346.99 52.5099C346.99 55.4599 346 58.0199 344.23 60.0899C342.45 62.1599 340.18 63.4399 337.32 63.7299L349.26 83.2099ZM327.35 58.6099H328.73C332.38 58.6099 334.85 58.2199 336.03 57.4299C337.31 56.6399 337.9 55.2699 337.9 53.1999C337.9 51.1299 337.21 49.5599 335.93 48.6699C334.65 47.7899 332.28 47.3899 328.73 47.3899H327.35V58.6099Z" fill="#1A6DAE"/>
<path d="M353.41 83.2099V40.4099H378.67V48.0799H362.59V56.9399H378.67V64.7099H362.59V75.4299H378.67V83.2099H353.41Z" fill="#1A6DAE"/>
<path d="M386.47 83.2099V40.4099H395.75V75.4299H410.35V83.2099H386.47Z" fill="#1A6DAE"/>
<path d="M409.86 83.2099L426.24 40.4099H436.7L453.28 83.2099H442.92L439.37 74.1599H422.69L419.73 83.2099H409.86ZM437.19 66.9699L432.45 53.0999C432.25 52.7099 432.05 52.0199 431.86 50.9399C431.66 49.9599 431.47 48.7799 431.17 47.2999C430.97 48.6799 430.68 49.9599 430.48 51.0399C430.28 52.1199 430.09 52.9099 429.99 53.2999L425.35 66.9799H437.19V66.9699Z" fill="#1A6DAE"/>
<path d="M235.67 127.68L240.8 121.97C241.49 123.54 242.48 124.72 243.96 125.71C245.34 126.6 247.02 126.99 248.79 126.99C250.86 126.99 252.64 126.5 253.82 125.51C255.1 124.53 255.69 123.15 255.69 121.38C255.69 119.41 253.62 117.35 249.47 115.38C248.09 114.69 247.1 114.2 246.31 113.81C242.56 111.84 239.89 109.87 238.41 108C237.03 106.13 236.24 103.97 236.24 101.41C236.24 97.87 237.72 94.92 240.48 92.65C243.34 90.39 246.99 89.21 251.43 89.21C254 89.21 256.27 89.7 258.14 90.59C260.01 91.48 261.69 92.95 263.17 94.92L257.74 100.04C257.05 98.86 256.26 97.88 255.17 97.28C254.08 96.69 252.8 96.3 251.32 96.3C249.44 96.3 247.97 96.79 246.88 97.68C245.8 98.66 245.2 99.75 245.2 101.22C245.2 103.48 247.47 105.55 251.81 107.42C252.7 107.81 253.39 108.11 253.88 108.31C257.53 109.98 260.2 111.85 261.97 113.92C263.75 116.08 264.64 118.45 264.64 121.1C264.64 125.13 263.26 128.28 260.49 130.74C257.73 133.1 253.98 134.28 249.34 134.28C246.08 134.28 243.32 133.69 240.95 132.61C238.63 131.42 236.86 129.84 235.67 127.68Z" fill="#1A6DAE"/>
<path d="M265.87 133.19L282.25 90.29H292.71L309.29 133.19H298.83L295.38 124.04H278.7L275.74 133.19H265.87ZM293.21 116.85L288.37 102.98C288.27 102.59 288.07 101.9 287.88 100.91C287.68 99.83 287.49 98.65 287.19 97.17C286.99 98.55 286.7 99.83 286.5 100.91C286.2 102.09 286.11 102.78 285.91 103.17L281.27 116.85H293.21Z" fill="#1A6DAE"/>
<path d="M312.65 133.19V90.29H322.22L341.27 115.18C341.76 115.97 342.36 116.95 343.05 118.23C343.64 119.51 344.33 120.99 345.02 122.76C344.82 121.48 344.72 120.2 344.62 118.92C344.52 117.74 344.42 116.16 344.42 114.3V90.29H353.2V133.19H344.22L324.68 107.71C324.09 107.02 323.5 106.04 322.9 104.76C322.21 103.48 321.52 101.91 320.83 100.14C321.03 101.42 321.13 102.7 321.22 103.88C321.32 105.16 321.42 106.73 321.42 108.7V133.2H312.65V133.19Z" fill="#1A6DAE"/>
<path d="M377.69 98.06V133.19H368.41V98.06H357.95V90.29H388.15V98.06H377.69Z" fill="#1A6DAE"/>
<path d="M402.36 90.29H393.18V133.19H402.36V90.29Z" fill="#1A6DAE"/>
<path d="M405.91 133.19L422.19 90.29H432.75L449.33 133.19H438.87L435.41 124.04H418.73L415.77 133.19H405.91ZM433.25 116.85L428.41 102.98C428.31 102.59 428.11 101.9 427.92 100.91C427.72 99.83 427.43 98.65 427.23 97.17C426.93 98.55 426.74 99.83 426.54 100.91C426.24 102.09 426.05 102.78 425.95 103.17L421.31 116.85H433.25Z" fill="#1A6DAE"/>
<path d="M472.92 110.56H492.56C492.56 110.76 492.56 111.05 492.66 111.35C492.66 111.65 492.66 112.14 492.66 112.73C492.66 119.13 490.79 124.34 487.13 128.28C483.38 132.31 478.64 134.28 472.82 134.28C466.11 134.28 460.68 132.21 456.34 127.88C452 123.65 449.83 118.24 449.83 111.74C449.83 105.25 452 99.9301 456.34 95.7001C460.68 91.4701 466.21 89.3101 472.82 89.3101C476.37 89.3101 479.53 90.0001 482.49 91.4701C485.35 92.9501 488.02 95.1101 490.29 98.0601L484.07 102.59C482.49 100.72 480.91 99.3401 479.23 98.4601C477.45 97.6701 475.58 97.1801 473.31 97.1801C469.07 97.1801 465.61 98.5601 463.14 101.21C460.57 103.77 459.29 107.31 459.29 111.74C459.29 116.07 460.57 119.61 463.14 122.27C465.71 124.93 468.96 126.21 473.11 126.21C476.17 126.21 478.54 125.52 480.51 124.14C482.38 122.66 483.27 120.89 483.27 118.53V118.14H472.91V110.56H472.92Z" fill="#1A6DAE"/>
<path d="M542.69 111.84C542.69 114.89 542.2 117.74 541.01 120.5C539.83 123.25 538.25 125.61 536.08 127.68C533.81 129.84 531.34 131.42 528.48 132.6C525.72 133.68 522.85 134.27 519.8 134.27C517.23 134.27 514.67 133.88 512.1 132.99C509.63 132.1 507.26 130.82 505.19 129.15C502.53 126.98 500.45 124.43 498.97 121.38C497.59 118.43 496.8 115.28 496.8 111.84C496.8 108.69 497.39 105.84 498.58 103.08C499.66 100.42 501.34 97.9601 503.51 95.9001C505.68 93.8301 508.15 92.1601 511.01 91.0801C513.87 89.9001 516.83 89.3101 519.79 89.3101C522.85 89.3101 525.71 89.9001 528.57 91.0801C531.43 92.1601 533.9 93.8401 536.07 95.9001C538.24 97.9701 539.92 100.42 541 103.18C542.2 105.83 542.69 108.69 542.69 111.84ZM519.8 126.1C523.75 126.1 526.9 124.72 529.47 122.07C532.04 119.31 533.32 115.87 533.32 111.84C533.32 107.71 532.04 104.36 529.47 101.51C526.9 98.7601 523.65 97.3801 519.8 97.3801C515.95 97.3801 512.69 98.7601 510.13 101.51C507.56 104.27 506.28 107.71 506.28 111.84C506.28 115.97 507.56 119.32 510.13 122.07C512.59 124.72 515.85 126.1 519.8 126.1Z" fill="#1A6DAE"/>
<path d="M235.38 31.7499V16.8899H236.76V22.8999H244.85V16.8899H246.23V31.7499H244.85V24.0799H236.76V31.7499H235.38Z" fill="#1A6DAE"/>
<path d="M267.35 24.37C267.35 25.35 267.15 26.34 266.76 27.32C266.27 28.3 265.77 29.09 264.98 29.88C264.19 30.57 263.3 31.16 262.41 31.55C261.42 31.94 260.44 32.14 259.35 32.14C258.26 32.14 257.18 31.94 256.29 31.55C255.3 31.16 254.42 30.57 253.62 29.88C252.93 29.09 252.34 28.21 251.94 27.32C251.54 26.34 251.35 25.35 251.35 24.37C251.35 23.29 251.55 22.3 251.94 21.32C252.34 20.34 252.93 19.55 253.62 18.76C254.41 18.07 255.3 17.48 256.19 17.09C257.18 16.7 258.26 16.5 259.35 16.5C260.43 16.5 261.42 16.7 262.41 17.09C263.4 17.48 264.19 18.07 264.98 18.76C265.77 19.55 266.36 20.33 266.76 21.32C267.15 22.3 267.35 23.29 267.35 24.37ZM259.36 30.96C260.25 30.96 261.04 30.76 261.83 30.47C262.62 30.08 263.31 29.68 264 28.99C264.59 28.4 265.08 27.71 265.38 26.83C265.68 26.04 265.87 25.26 265.87 24.37C265.87 23.48 265.67 22.6 265.38 21.81C265.08 21.02 264.59 20.33 264 19.65C263.31 19.06 262.62 18.57 261.83 18.27C261.04 17.88 260.25 17.78 259.36 17.78C258.47 17.78 257.58 17.88 256.79 18.27C256 18.57 255.31 19.06 254.72 19.65C254.03 20.34 253.63 21.03 253.24 21.81C252.94 22.6 252.75 23.38 252.75 24.37C252.75 25.26 252.95 26.04 253.24 26.83C253.64 27.62 254.03 28.4 254.72 28.99C255.31 29.68 256 30.17 256.79 30.47C257.58 30.77 258.37 30.96 259.36 30.96Z" fill="#1A6DAE"/>
<path d="M271.3 29.29L272.39 28.6C272.69 29.39 272.98 29.88 273.57 30.37C274.06 30.76 274.75 30.96 275.44 30.96C276.43 30.96 277.12 30.66 277.71 30.07C278.2 29.58 278.5 28.79 278.5 27.81C278.5 27.02 278.3 26.43 277.91 26.04C277.61 25.55 276.83 24.96 275.64 24.37C274.16 23.58 273.17 22.89 272.68 22.3C272.19 21.61 271.89 20.92 271.89 20.14C271.89 19.06 272.28 18.17 272.97 17.48C273.66 16.89 274.65 16.5 275.73 16.5C276.52 16.5 277.11 16.7 277.7 16.99C278.29 17.28 278.69 17.78 279.08 18.37L277.99 19.06C277.79 18.57 277.5 18.27 277.1 18.08C276.7 17.88 276.21 17.69 275.62 17.69C274.93 17.69 274.34 17.99 273.94 18.38C273.45 18.77 273.25 19.36 273.25 20.15C273.25 21.13 274.14 22.12 275.82 23C276.12 23.2 276.41 23.3 276.51 23.39C277.79 24.08 278.68 24.77 279.08 25.36C279.57 26.05 279.77 26.84 279.77 27.82C279.77 29.1 279.38 30.18 278.59 30.97C277.8 31.76 276.72 32.15 275.43 32.15C274.44 32.15 273.56 31.86 272.86 31.46C272.19 30.96 271.69 30.18 271.3 29.29Z" fill="#1A6DAE"/>
<path d="M284.92 31.7499V16.8899H287.59C288.68 16.8899 289.46 16.8899 289.96 17.0899C290.45 17.1899 290.95 17.3899 291.34 17.5799C291.74 17.9699 292.13 18.3699 292.43 18.9599C292.63 19.5499 292.82 20.2399 292.82 20.9299C292.82 22.4099 292.43 23.3899 291.54 24.0799C290.75 24.7699 289.57 25.0599 287.79 25.0599H286.21V31.7499H284.92ZM286.2 23.8799H287.19C288.77 23.8799 289.95 23.6799 290.45 23.2899C291.04 22.7999 291.34 22.1099 291.34 21.0299C291.34 20.6399 291.24 20.2399 291.14 19.8499C291.04 19.4599 290.84 19.1599 290.55 18.8699C290.25 18.5699 289.96 18.3799 289.46 18.2799C289.06 18.0799 288.28 18.0799 287.19 18.0799H286.2V23.8799V23.8799Z" fill="#1A6DAE"/>
<path d="M298.73 16.8899H297.35V31.7499H298.73V16.8899Z" fill="#1A6DAE"/>
<path d="M307.22 31.7499V18.1699H303.08V16.8899H312.65V18.1699H308.6V31.7499H307.22Z" fill="#1A6DAE"/>
<path d="M313.44 31.75L320.05 16.3L326.27 31.75H324.79L322.92 26.7301H316.8L314.83 31.75H313.44ZM317.29 25.55H322.52L319.95 19.06L317.29 25.55Z" fill="#1A6DAE"/>
<path d="M330.02 31.7499V16.8899H331.4V30.4699H336.53V31.7499H330.02Z" fill="#1A6DAE"/>
<path d="M350.25 16.8899H348.87V31.7499H350.25V16.8899Z" fill="#1A6DAE"/>
<path d="M356.07 31.75V16.2L366.63 28.7V16.89H367.82V32.14L357.26 19.75V31.75H356.07Z" fill="#1A6DAE"/>
<path d="M373.64 31.7499V16.8899H381.04V18.1699H375.02V22.7999H380.84V24.0799H375.02V31.7499H373.64Z" fill="#1A6DAE"/>
<path d="M382.62 31.75L389.23 16.3L395.45 31.75H393.97L392.09 26.7301H385.97L384 31.75H382.62ZM386.47 25.55H391.7L389.13 19.06L386.47 25.55Z" fill="#1A6DAE"/>
<path d="M399.2 31.75V16.2L409.76 28.7V16.89H411.04V32.14L400.48 19.75V31.75H399.2Z" fill="#1A6DAE"/>
<path d="M419.53 31.7499V18.1699H415.38V16.8899H424.96V18.1699H420.91V31.7499H419.53Z" fill="#1A6DAE"/>
<path d="M430.68 16.8899H429.3V31.7499H430.68V16.8899Z" fill="#1A6DAE"/>
<path d="M436.5 31.7499V16.8899H437.89V30.4699H443.02V31.7499H436.5Z" fill="#1A6DAE"/>
</svg>
