<?xml version="1.0" encoding="utf-8"?>
<!-- Generator: Adobe Illustrator 24.0.1, SVG Export Plug-In . SVG Version: 6.00 Build 0)  -->
<svg version="1.1" id="Camada_1" xmlns="http://www.w3.org/2000/svg" xmlns:xlink="http://www.w3.org/1999/xlink" x="0px" y="0px"
	 viewBox="0 0 123 44" style="enable-background:new 0 0 123 44;" xml:space="preserve">
<style type="text/css">
	.st0{fill:url(#SVGID_1_);}
	.st1{clip-path:url(#SVGID_3_);fill:url(#SVGID_4_);}
</style>
<linearGradient id="SVGID_1_" gradientUnits="userSpaceOnUse" x1="5.5071" y1="-77.4449" x2="103.3697" y2="-6.3832">
	<stop  offset="0" style="stop-color:#8E0063"/>
	<stop  offset="1" style="stop-color:#E00056"/>
</linearGradient>
<rect x="-13" y="-68" class="st0" width="125" height="45"/>
<g>
	<defs>
		<path id="SVGID_2_" d="M13.1,6.1v7.1h4.7v6.2h-4.7v13.1c0,1.1,0.2,1.8,0.6,2.3c0.4,0.4,1.2,0.6,2.3,0.6c0.9,0,1.6-0.1,2.2-0.2v6.4
			c-1.6,0.5-3.3,0.8-5,0.8c-3.1,0-5.3-0.7-6.8-2.2c-1.5-1.4-2.2-3.6-2.2-6.6V19.5H0.5v-6.2h3.7V6.1H13.1z M37.5,41.9
			c-0.3-0.6-0.6-1.4-0.8-2.6c-1.6,2.1-3.9,3.1-6.9,3.1c-2.7,0-5-0.8-6.9-2.5c-1.9-1.6-2.8-3.7-2.8-6.2c0-3.1,1.1-5.5,3.4-7.1
			c2.3-1.6,5.6-2.4,10-2.4h2.8v-1.5c0-2.6-1.1-4-3.4-4c-2.1,0-3.2,1-3.2,3.1h-8.9c0-2.8,1.2-5,3.5-6.8c2.4-1.7,5.4-2.6,9-2.6
			s6.5,0.9,8.7,2.7c2.1,1.8,3.2,4.2,3.3,7.3v12.7c0,2.6,0.4,4.6,1.2,6v0.5H37.5z M31.9,36.1c1.1,0,2-0.2,2.8-0.7
			c0.7-0.5,1.3-1,1.6-1.6v-4.6h-2.6c-3.1,0-4.7,1.4-4.7,4.2c0,0.8,0.3,1.5,0.8,2C30.4,35.8,31.1,36.1,31.9,36.1z M65.2,33.9
			c0-0.8-0.4-1.4-1.2-1.8c-0.8-0.5-2.3-0.9-4.5-1.4c-2.2-0.5-4.1-1.1-5.5-1.9c-1.4-0.8-2.6-1.8-3.3-2.9c-0.8-1.1-1.1-2.5-1.1-3.9
			c0-2.6,1.1-4.8,3.3-6.5c2.2-1.7,5-2.6,8.5-2.6c3.8,0,6.8,0.9,9.1,2.6c2.3,1.7,3.4,4,3.4,6.8h-9c0-2.3-1.2-3.4-3.6-3.4
			c-0.9,0-1.7,0.3-2.4,0.8s-1,1.2-1,1.9c0,0.8,0.4,1.4,1.2,1.9c0.8,0.5,2,0.9,3.7,1.2c1.7,0.3,3.2,0.7,4.5,1.1
			c4.3,1.5,6.5,4.1,6.5,8c0,2.6-1.2,4.7-3.5,6.4c-2.3,1.6-5.3,2.5-9,2.5c-2.5,0-4.6-0.4-6.6-1.3c-1.9-0.9-3.4-2.1-4.5-3.6
			c-1.1-1.5-1.6-3.1-1.6-4.8H57c0,1.3,0.5,2.3,1.3,2.9c0.8,0.6,1.9,0.9,3.3,0.9c1.2,0,2.1-0.2,2.7-0.7
			C64.9,35.3,65.2,34.7,65.2,33.9z M89.5,31.2L87,33.8v8.2h-8.9V1.2H87v21.6l0.9-1.2l6.7-8.4h10.7L95.3,25L106,41.9H95.8L89.5,31.2z
			 M115.5,27c-4.1,0-7.5,3.4-7.5,7.5s3.4,7.5,7.5,7.5s7.5-3.4,7.5-7.5S119.6,27,115.5,27z"/>
	</defs>
	<clipPath id="SVGID_3_">
		<use xlink:href="#SVGID_2_"  style="overflow:visible;"/>
	</clipPath>
	<linearGradient id="SVGID_4_" gradientUnits="userSpaceOnUse" x1="5.7383" y1="-1.3477" x2="121.5616" y2="46.1096">
		<stop  offset="0" style="stop-color:#001E42"/>
		<stop  offset="0.6659" style="stop-color:#006F5D"/>
		<stop  offset="1" style="stop-color:#009369"/>
	</linearGradient>
	<rect x="-1" y="-1" class="st1" width="125" height="45"/>
</g>
</svg>
